<svg width="24" height="26" viewBox="0 0 24 26" fill="none" xmlns="http://www.w3.org/2000/svg">
<path d="M0 17.263H4.7124C4.7124 18.8167 7.94039 20.1402 11.781 20.1402C15.6216 20.1402 18.8496 18.8167 18.8496 17.263C18.8496 15.6806 16.3991 15.1051 11.2155 14.3427C6.22037 13.5802 0 12.6308 0 8.6315C0 6.05644 3.46361 3.86979 8.2467 3.13611V0H15.3153V3.13611C20.0984 3.86979 23.562 6.05644 23.562 8.6315H18.8496C18.8496 7.07783 15.6216 5.75434 11.781 5.75434C7.94039 5.75434 4.7124 7.07783 4.7124 8.6315C4.7124 10.2139 7.16284 10.7894 12.3465 11.5518C17.3416 12.3143 23.562 13.2637 23.562 17.263C23.562 19.8381 20.0984 22.0247 15.3153 22.7584V25.8945H8.2467V22.7584C3.46361 22.0247 0 19.8381 0 17.263Z" fill="black"/>
</svg>
